<svg xmlns="http://www.w3.org/2000/svg" width="99" height="99" viewBox="0 0 99 99" fill="none"><rect width="99" height="99" rx="10" fill="white"></rect><rect x="17" y="34" width="62" height="30" rx="15" fill="black"></rect><path d="M49.5 30C28.7901 30 12 38.5068 12 49C12 59.4932 28.7901 68 49.5 68C70.2099 68 87 59.4932 87 49C87 38.5068 70.2099 30 49.5 30ZM39.7423 52.7017C38.8474 53.5387 37.8536 53.8842 36.7592 54.2402C35.6648 54.5967 34.272 54.5231 32.5785 54.5231H28.7404L27.6767 60.6598H23.1952L27.1942 39.7949H35.8121C38.4048 39.7949 40.2959 40.5405 41.4849 41.901C42.6738 43.2615 43.0311 45.1928 42.5572 47.6309C42.3614 48.6355 42.0318 49.5695 41.5665 50.4016C41.1006 51.2344 40.4924 52.0119 39.7423 52.7017ZM52.8232 54.5231L54.5915 45.6739C54.7929 44.638 54.7192 43.8684 54.37 43.4923C54.0201 43.1155 53.2762 42.8632 52.1388 42.8632H48.5848L46.2947 54.5231H41.8483L45.8472 34.2718H50.2937L49.2305 39.7949H53.1914C55.6841 39.7949 57.4028 40.295 58.3487 41.164C59.2945 42.0329 59.5781 43.2235 59.2 45.1701L57.3396 54.5231H52.8232ZM77.5345 47.6634C77.3393 48.668 77.009 49.5861 76.5444 50.4176C76.0791 51.2503 75.4715 52.0119 74.7208 52.7017C73.8258 53.5387 72.8315 53.8842 71.7377 54.2402C70.6438 54.5967 69.2499 54.5231 67.5564 54.5231H63.7183L62.6551 60.6598H58.1737L62.1721 39.7949H70.7906C73.3833 39.7949 75.2744 40.5405 76.4628 41.901C77.6505 43.2615 78.0083 45.2259 77.5345 47.6634ZM69.0921 42.8632H66.0225L64.3486 51.4547H67.0752C68.881 51.4547 70.2277 51.2767 71.1116 50.5956C71.9967 49.9156 72.5927 48.8601 72.9027 47.2688C73.1997 45.7402 73.0647 44.5478 72.4976 43.9194C71.9298 43.291 70.7948 42.8632 69.0921 42.8632ZM34.1143 42.8632H31.044L29.3702 51.4547H32.0961C33.9025 51.4547 35.2486 51.2767 36.1331 50.5956C37.0176 49.9156 37.6142 48.8601 37.9236 47.2688C38.2207 45.7402 38.0856 44.5478 37.5185 43.9194C36.9513 43.291 35.817 42.8632 34.1143 42.8632Z" fill="#6181B6"></path></svg>