<svg xmlns="http://www.w3.org/2000/svg" width="99" height="99" viewBox="0 0 99 99" fill="none"><rect width="99" height="99" rx="10" fill="white"></rect><path d="M48.5088 19C33.4172 19 34.3591 25.5298 34.3591 25.5298L34.3776 32.295H48.7782V34.3245H28.6542C28.6542 34.3245 19 33.231 19 48.4257C19 63.6168 27.4282 63.0793 27.4282 63.0793H32.4587V56.0287C32.4587 56.0287 32.1875 47.6195 40.7531 47.6195H55.0347C55.0347 47.6195 63.0598 47.7492 63.0598 39.8812V26.8717C63.0598 26.8717 64.2784 19 48.5088 19ZM40.5673 23.5484C41.9996 23.5484 43.1588 24.705 43.1588 26.134C43.1588 27.563 41.9996 28.7196 40.5673 28.7196C40.2269 28.7201 39.8897 28.6536 39.5751 28.5238C39.2604 28.394 38.9746 28.2036 38.7338 27.9634C38.4931 27.7232 38.3022 27.438 38.1722 27.1241C38.0421 26.8101 37.9754 26.4737 37.9759 26.134C37.9759 24.705 39.1351 23.5484 40.5673 23.5484Z" fill="url(#paint0_linear_4007_31)"></path><path d="M49.4912 79C64.5827 79 63.6409 72.2885 63.6409 72.2885L63.6223 65.3351H49.2218V63.2491H69.3439C69.3439 63.2491 79 64.3731 79 48.7575C79 33.1419 70.5718 33.6963 70.5718 33.6963H65.5413V40.9411C65.5413 40.9411 65.8125 49.5843 57.2469 49.5843H42.9652C42.9652 49.5843 34.9402 49.4509 34.9402 57.5378V70.9093C34.9402 70.9093 33.7216 79 49.4912 79ZM57.4326 74.325C57.0922 74.3255 56.755 74.2571 56.4404 74.1237C56.1257 73.9904 55.8399 73.7946 55.5991 73.5478C55.3584 73.3009 55.1675 73.0077 55.0375 72.6851C54.9074 72.3624 54.8407 72.0166 54.8412 71.6675C54.8412 70.2006 56.0004 69.0119 57.4326 69.0119C58.8649 69.0119 60.0241 70.1987 60.0241 71.6675C60.0241 73.1382 58.8649 74.325 57.4326 74.325Z" fill="url(#paint1_linear_4007_31)"></path><defs><linearGradient id="paint0_linear_4007_31" x1="24.7123" y1="24.1564" x2="54.0395" y2="53.6482" gradientUnits="userSpaceOnUse"><stop stop-color="#387EB8"></stop><stop offset="1" stop-color="#366994"></stop></linearGradient><linearGradient id="paint1_linear_4007_31" x1="43.3498" y1="42.8976" x2="75.6788" y2="73.0999" gradientUnits="userSpaceOnUse"><stop stop-color="#FFE052"></stop><stop offset="1" stop-color="#FFC331"></stop></linearGradient></defs></svg>