<svg xmlns="http://www.w3.org/2000/svg" width="1432" height="450" viewBox="0 0 1432 450" fill="none"><path d="M71.4336 224.947L52.2096 153.202L75.3999 146.988L188.421 49.9053L380.137 87.0822L384.215 102.301L326.423 150.409L350.696 240.996C250.622 229.285 169.857 273.399 141.983 296.92L118.293 208.507L75.1714 198.313L80.8547 222.422L88.9063 246.674L99.1701 261.788L75.9798 268.002L77.3111 249.781L71.4336 224.947Z" fill="#FFB400"></path><path d="M24.0785 190.255L56.1017 166.524L63.6748 194.787L24.0785 190.255Z" fill="#FFB400"></path><path d="M398.941 90.5873L386.92 100.799L383.23 87.0298L398.941 90.5873Z" fill="#FFB400"></path><circle cx="79.0828" cy="236.101" r="17.2555" transform="rotate(-15 79.0828 236.101)" fill="#FFB400" stroke="white" stroke-width="3"></circle><path d="M218.735 261.597L209.026 225.362L180.541 208.916M246.947 250.932L239.113 221.695L253.967 195.967L244.637 161.146" stroke="white" stroke-width="2"></path><path d="M197.328 283.325L187.619 247.091L159.134 230.645" stroke="white" stroke-width="2"></path><path d="M239.778 225.6L213.811 210.608L206.617 183.757" stroke="white" stroke-width="2"></path><path d="M274.343 245.92L265.022 211.135L281.998 181.731" stroke="white" stroke-width="2"></path><circle cx="284.875" cy="178.317" r="7" transform="rotate(-15 284.875 178.317)" fill="white"></circle><circle cx="243.562" cy="159.364" r="7" transform="rotate(-15 243.562 159.364)" fill="white"></circle><circle cx="179.104" cy="177.67" r="5" transform="rotate(-15 179.104 177.67)" fill="white"></circle><circle cx="159.134" cy="230.644" r="5" transform="rotate(-15 159.134 230.644)" fill="white"></circle><circle cx="176.433" cy="206.338" r="7" transform="rotate(-15 176.433 206.338)" fill="white"></circle><circle cx="206.875" cy="184.723" r="6" transform="rotate(-15 206.875 184.723)" fill="white"></circle><circle cx="284.875" cy="178.317" r="3" transform="rotate(-15 284.875 178.317)" fill="#FFB400"></circle><circle cx="243.562" cy="159.364" r="3" transform="rotate(-15 243.562 159.364)" fill="#FFB400"></circle><circle cx="179.104" cy="177.671" r="2" transform="rotate(-15 179.104 177.671)" fill="#FFB400"></circle><circle cx="159.134" cy="230.645" r="2" transform="rotate(-15 159.134 230.645)" fill="#FFB400"></circle><circle cx="176.433" cy="206.339" r="3" transform="rotate(-15 176.433 206.339)" fill="#FFB400"></circle><circle cx="206.876" cy="184.723" r="2" transform="rotate(-15 206.876 184.723)" fill="#FFB400"></circle><path d="M202.894 222.024L196.294 197.393L182.822 189.615L180.493 180.922" stroke="white" stroke-width="2"></path><path d="M239.324 224.686L217.842 144.515" stroke="white" stroke-width="2"></path><circle cx="216.031" cy="137.753" r="10" transform="rotate(-15 216.031 137.753)" fill="white"></circle><circle cx="216.031" cy="137.753" r="4" transform="rotate(-15 216.031 137.753)" fill="#FFB400"></circle><path d="M760.906 364.684C747.365 364.684 736.028 375.857 736.028 389.585C736.028 403.632 747.05 414.486 760.906 414.486C774.762 414.486 785.783 403.632 785.783 389.585C785.783 375.857 774.447 364.684 760.906 364.684Z" fill="#FFB400"></path><path d="M509.644 285C500.165 285 492.23 292.82 492.23 302.428C492.23 312.26 499.945 319.857 509.644 319.857C519.343 319.857 527.058 312.26 527.058 302.428C527.058 292.82 519.123 285 509.644 285Z" fill="#FFB400"></path><path d="M432.182 412.682C439.043 405.606 442.474 397.115 442.474 387.411C442.474 377.706 439.043 369.417 432.182 362.341C425.322 355.265 416.746 351.828 406.24 351.828C395.735 351.828 387.159 355.265 380.298 362.341C373.437 369.417 370.007 377.706 370.007 387.411C370.007 397.115 373.437 405.606 380.298 412.682C387.159 419.758 395.735 423.195 406.24 423.195C416.746 423.195 425.322 419.758 432.182 412.682ZM472.918 446.041H442.474V428.856H442.045C431.11 442.604 417.389 449.477 400.666 449.477C382.228 449.477 367.22 443.614 355.642 431.888C344.065 420.162 338.276 405.404 338.276 387.411C338.276 369.619 344.065 354.861 355.642 343.135C367.22 331.409 382.228 325.546 400.666 325.546C417.603 325.546 431.325 332.42 442.045 345.965H442.474V328.983H472.918V446.041Z" fill="white"></path><path d="M786.449 412.385C793.041 405.276 796.337 396.745 796.337 386.996C796.337 377.247 793.041 368.919 786.449 361.81C779.857 354.701 771.618 351.249 761.524 351.249C751.43 351.249 743.191 354.701 736.599 361.81C730.007 368.919 726.711 377.247 726.711 386.996C726.711 396.745 730.007 405.276 736.599 412.385C743.191 419.493 751.43 422.946 761.524 422.946C771.618 422.946 779.857 419.493 786.449 412.385ZM825.587 445.898H796.337V428.633H795.925C785.419 442.445 772.236 449.351 756.168 449.351C738.453 449.351 724.034 443.46 712.91 431.68C701.787 419.9 696.225 405.073 696.225 386.996C696.225 369.122 701.787 354.295 712.91 342.515C724.034 330.735 738.453 324.844 756.168 324.844C772.442 324.844 785.625 331.75 795.925 345.358H796.337V328.297H825.587V445.898Z" fill="white"></path><path d="M591.072 359.796C584.481 367.068 581.185 375.587 581.185 385.561C581.185 395.534 584.481 404.261 591.072 411.533C597.664 418.806 605.904 422.338 615.997 422.338C626.091 422.338 634.331 418.806 640.922 411.533C647.514 404.261 650.81 395.534 650.81 385.561C650.81 375.587 647.514 367.068 640.922 359.796C634.331 352.524 626.091 348.991 615.997 348.991C605.904 348.991 597.664 352.524 591.072 359.796ZM581.597 428.156H581.185V445.817H551.934V289.981H581.185V342.966H581.597C591.896 329.044 605.08 321.98 621.353 321.98C639.069 321.98 653.488 328.005 664.612 340.057C675.735 351.9 681.297 367.068 681.297 385.561C681.297 404.053 675.735 419.221 664.612 431.273C653.488 443.324 639.069 449.349 621.353 449.349C605.286 449.349 592.102 442.285 581.597 428.156Z" fill="white"></path><path d="M497.204 444.37V324.844H527.057V444.37H497.204Z" fill="white"></path><path d="M352.915 289.981V317.977H307.677V444.369H278.741V317.977H235V289.981H352.915Z" fill="white"></path><path d="M1431.57 402.424C1431.57 402.576 1431.41 404.244 1431.09 407.582H1344.96C1346.4 416.533 1350.58 423.967 1357.63 430.036C1364.69 435.953 1373.03 438.987 1382.5 438.987C1395.97 438.987 1407.84 431.856 1414.73 421.388H1427.08C1423.23 429.732 1417.3 436.408 1409.28 441.415C1401.26 446.421 1392.28 449 1382.5 449C1369.02 449 1357.47 444.448 1347.85 435.346C1338.39 426.243 1333.57 415.32 1333.57 402.424C1333.57 389.528 1338.39 378.605 1347.85 369.654C1357.47 360.551 1369.02 356 1382.5 356C1396.13 356 1407.68 360.551 1417.14 369.654C1426.76 378.605 1431.57 389.528 1431.57 402.424ZM1344.96 397.266H1420.18C1418.74 388.315 1414.57 380.881 1407.36 374.964C1400.3 369.047 1391.96 366.013 1382.5 366.013C1373.03 366.013 1364.69 369.047 1357.63 374.964C1350.58 380.881 1346.4 388.315 1344.96 397.266Z" fill="white"></path><path d="M1325.57 367.551H1308.23V425.121C1308.23 432.029 1312.28 435.561 1318.06 435.561H1325.57V446H1318.06C1306.93 446 1298.4 437.863 1298.4 425.121V367.551H1288.57V357.111H1298.4V337H1308.23V357.111H1325.57V367.551Z" fill="white"></path><path d="M1262.25 356H1272.57V446.347H1262.25V431.055H1261.95C1259.82 435.58 1255.88 439.794 1250.11 443.539C1244.49 447.127 1238.26 449 1231.73 449C1220.96 449 1212.6 445.723 1206.53 439.17C1200.61 432.46 1197.57 423.722 1197.57 412.954V356H1207.9V412.954C1207.9 428.402 1217.92 438.702 1232.65 438.702C1240.09 438.702 1246.77 436.049 1252.84 430.743C1258.91 425.282 1262.1 419.04 1262.25 411.706V356Z" fill="white"></path><path d="M1181.57 367.551H1164.23V425.121C1164.23 432.029 1168.28 435.561 1174.06 435.561H1181.57V446H1174.06C1162.93 446 1154.4 437.863 1154.4 425.121V367.551H1144.57V357.111H1154.4V337H1164.23V357.111H1181.57V367.551Z" fill="white"></path><path d="M1118.57 446V356H1129.57V446H1118.57Z" fill="white"></path><path d="M1120.67 338.758C1114.08 332.355 1124.65 321.027 1130.32 328.415C1137.22 334.49 1126.64 345.818 1120.67 338.758Z" fill="#FFB400"></path><path d="M1106.57 367.551H1087.36V425.121C1087.36 432.029 1091.84 435.561 1098.24 435.561H1106.57V446H1098.24C1085.91 446 1076.47 437.863 1076.47 425.121V367.551H1065.57V357.111H1076.47V337H1087.36V357.111H1106.57V367.551Z" fill="white"></path><path d="M1054.2 381.184H1043.12C1043.12 372.537 1033.97 366.013 1019.99 366.013C1005.7 366.013 997.028 371.171 997.028 379.06C997.028 383.612 998.475 387.101 1001.53 389.68C1007.47 394.535 1016.94 394.687 1027.22 396.507C1032.52 397.266 1037.34 398.328 1041.84 399.542C1050.83 401.969 1057.57 409.555 1057.57 422.298C1057.57 439.139 1043.28 449 1019.99 449C1008.75 449 999.761 446.269 992.854 440.959C985.947 435.498 982.575 428.519 982.575 420.023H993.656C993.656 431.098 1003.77 438.987 1019.99 438.987C1036.69 438.987 1046.33 432.767 1046.33 421.843C1046.33 393.321 985.786 419.416 985.786 379.364C985.786 371.778 988.997 366.013 995.425 362.068C1002.01 357.972 1010.2 356 1019.99 356C1030.11 356 1038.46 358.427 1044.72 363.13C1050.99 367.833 1054.2 373.75 1054.2 381.184Z" fill="white"></path><path d="M902.899 446H892.575V358.567H902.899V373.366H903.205C905.331 368.986 909.277 364.909 914.892 361.436C920.664 357.812 926.886 356 933.414 356C944.194 356 952.542 359.171 958.464 365.664C964.536 372.007 967.575 380.463 967.575 390.883V446H957.251V390.883C957.251 375.933 947.233 365.966 932.507 365.966C925.066 365.966 918.387 368.533 912.315 373.819C906.238 378.953 903.054 384.993 902.899 392.091V446Z" fill="white"></path><path d="M873.575 446H861.575V330H873.575V446Z" fill="white"></path><path d="M1379.02 371C1401.8 371 1410.54 386.334 1412.57 394H1351.57C1356.45 375.6 1372.25 371 1379.02 371Z" fill="#FFB400"></path></svg>