<svg xmlns="http://www.w3.org/2000/svg" xmlns:xlink="http://www.w3.org/1999/xlink" width="65" height="65" x="0" y="0" viewBox="0 0 512 512" style="enable-background:new 0 0 512 512" xml:space="preserve"><g><path fill="#390000" d="M90.667 6.4h330.667C471.467 6.4 512 46.933 512 97.067v317.867c0 50.133-40.533 90.667-90.667 90.667H90.667C40.533 505.6 0 465.067 0 414.933V97.067C0 46.933 40.533 6.4 90.667 6.4z" opacity="1" data-original="#390000"></path><g fill="#FF9A00"><path d="M248.107 305.92h-79.36l-16.213 50.133c-.427 1.92-2.133 3.2-4.053 2.987h-40.107c-2.347 0-2.987-1.28-2.347-3.84l68.693-197.76c.64-2.133 1.28-4.48 2.133-7.04.853-4.48 1.28-9.173 1.28-13.867-.213-1.067.64-2.133 1.707-2.347h55.253c1.707 0 2.56.64 2.773 1.707l77.867 219.733c.64 2.347 0 3.413-2.133 3.413h-44.587c-1.493.213-2.987-.853-3.413-2.347zm-66.987-43.307h54.187L208 173.653zM362.24 170.667c-7.04.213-13.867-2.56-18.987-7.467-4.907-5.333-7.467-12.373-7.253-19.627-.213-7.253 2.56-14.08 7.68-18.987s11.947-7.467 18.987-7.467c8.32 0 14.72 2.56 19.413 7.467a26.937 26.937 0 0 1 7.04 18.987c.213 7.253-2.347 14.293-7.467 19.627-4.906 5.12-12.16 7.893-19.413 7.467zM338.347 355.84V191.573c0-2.133.853-2.987 2.773-2.987h42.24c1.92 0 2.773 1.067 2.773 2.987V355.84c0 2.347-.853 3.413-2.773 3.413h-41.813c-2.134 0-3.2-1.28-3.2-3.413z" fill="#FF9A00" opacity="1" data-original="#ff9a00"></path></g></g></svg>